<?xml version="1.0" encoding="UTF-8" standalone="no"?>
<svg viewBox="0 0 1024 1024" version="1.1" xmlns="http://www.w3.org/2000/svg" width="200" height="200" xmlns:xlink="http://www.w3.org/1999/xlink" preserveAspectRatio="xMidYMid">
  <path d="M939.3 418.7L779.9 161c1.2-3 1.8-6.1 1.8-9.5 0-14.6-11.9-26.4-26.4-26.4-11.7 0-21.5 7.7-25 18.2L527.8 244.6c-4.4-3.2-9.7-5.1-15.5-5.1-5.8 0-11.1 1.9-15.5 5.1L294.3 143.3c-3.5-10.6-13.3-18.2-25-18.2-14.6 0-26.4 11.9-26.4 26.4 0 3.4 0.7 6.6 1.8 9.5L85.2 418.7c-12 2.5-21 13.1-21 25.9 0 14.6 11.9 26.5 26.4 26.5 0.6 0 1.1-0.1 1.7-0.2L486 871.2c-0.1 0.7-0.2 1.5-0.2 2.2 0 14.6 11.9 26.4 26.4 26.4 14.6 0 26.4-11.9 26.4-26.4 0-0.8-0.1-1.5-0.2-2.2l393.7-400.3c0.6 0 1.1 0.2 1.7 0.2 14.6 0 26.4-11.9 26.4-26.5 0.2-12.8-8.9-23.4-20.9-25.9zM279.5 175.9c0.7-0.3 1.3-0.7 1.9-1l202.7 214.6H271.2c-2.1-3.9-5-7.4-8.7-9.9l17-203.7zM253 200.5l-14.7 176.6c-8.2 3.2-14.4 10.3-16.3 19.1l-110 30 141-225.7zM113.5 457.7c1.3-2.3 2.4-4.9 3-7.6l112-30.5c4.1 4.5 9.8 7.4 16.1 8.2L459 809 113.5 457.7z m386.6 374.8L267.6 419.1c1.4-1.6 2.6-3.4 3.6-5.3h217.7c2.5 4.8 6.4 8.7 11.2 11.2v407.5z m0-461.4L325.3 186l160.6 80.3c0.1 10 5.9 18.6 14.2 23v81.8z m243.1-196.2c0.7 0.3 1.3 0.7 2 1l17 203.7c-3.7 2.5-6.7 5.9-8.7 9.9h-213l202.7-214.6zM524.4 289.2c8.4-4.4 14.1-13 14.3-23L699.3 186 524.4 371.1v-81.9z m0 543.3V425c4.8-2.5 8.7-6.4 11.2-11.2h217.7c1 1.9 2.2 3.7 3.6 5.3L524.4 832.5z m41.1-23.5L780 427.8c6.3-0.8 12-3.8 16.1-8.2l112 30.5c0.6 2.7 1.6 5.3 3 7.6L565.5 809z m237-412.9c-1.9-8.7-8.1-15.9-16.3-19.1l-14.7-176.6 141 225.6-110-29.9z" fill="#166DC4"></path>
</svg>